<svg width="90" height="24" viewBox="0 0 90 24" fill="none" xmlns="http://www.w3.org/2000/svg">
<path d="M11.25 0.750007C13.575 0.750007 15.675 1.38751 17.55 2.66251C19.425 3.93751 20.775 5.55001 21.6 7.50001L90 7.5L90 16.5L21.6 16.5C20.775 18.45 19.425 20.0625 17.55 21.3375C15.675 22.6125 13.575 23.25 11.25 23.25C8.1 23.25 5.4375 22.1625 3.2625 19.9875C1.0875 17.8125 -7.08125e-07 15.15 -9.83506e-07 12C-1.25889e-06 8.85001 1.0875 6.18751 3.2625 4.01251C5.4375 1.83751 8.1 0.750007 11.25 0.750007Z" fill="black"/>
</svg>
